<?xml version="1.0" encoding="UTF-8" standalone="no"?>
<svg
   xmlns:dc="http://purl.org/dc/elements/1.1/"
   xmlns:cc="http://creativecommons.org/ns#"
   xmlns:rdf="http://www.w3.org/1999/02/22-rdf-syntax-ns#"
   xmlns:svg="http://www.w3.org/2000/svg"
   xmlns="http://www.w3.org/2000/svg"
   xmlns:xlink="http://www.w3.org/1999/xlink"
   version="1.1"
   id="svg2"
   viewBox="0 0 260 80.000001"
   height="80"
   width="260">
  <defs
     id="defs4">
    <linearGradient
       id="linearGradient4411">
      <stop
         id="stop4413"
         offset="0"
         style="stop-color:#004761;stop-opacity:1" />
      <stop
         id="stop4415"
         offset="1"
         style="stop-color:#006287;stop-opacity:0;" />
    </linearGradient>
    <clipPath
       id="clipPath4152"
       clipPathUnits="userSpaceOnUse">
      <path
         id="path4154"
         d="M 0,252 144,252 144,0 0,0 0,252 Z" />
    </clipPath>
    <clipPath
       id="clipPath4160"
       clipPathUnits="userSpaceOnUse">
      <path
         id="path4162"
         d="m 5.33398,135.467 133.41202,0 0,-19.012 -133.41202,0 0,19.012 z" />
    </clipPath>
    <linearGradient
       gradientTransform="matrix(0.86518011,0,0,0.86518011,4.08667,978.29072)"
       gradientUnits="userSpaceOnUse"
       y2="71.514717"
       x2="31.643026"
       y1="51.362179"
       x1="31.643026"
       id="linearGradient4417"
       xlink:href="#linearGradient4411" />
  </defs>
  <metadata
     id="metadata7">
    <rdf:RDF>
      <cc:Work
         rdf:about="">
        <dc:format>image/svg+xml</dc:format>
        <dc:type
           rdf:resource="http://purl.org/dc/dcmitype/StillImage" />
        <dc:title></dc:title>
      </cc:Work>
    </rdf:RDF>
  </metadata>
  <g
     transform="translate(0,-972.36216)"
     id="layer1">
    <g
       transform="matrix(1.1558287,0,0,1.1558287,-0.72349052,-158.37433)"
       id="g4386">
      <rect
         y="978.29071"
         x="0.62595212"
         height="69.214409"
         width="224.94682"
         id="rect4396"
         style="fill:#000000;fill-opacity:1;stroke:none;stroke-width:0.86518013" />
      <g
         transform="translate(1.7303602,0)"
         id="text4392"
         style="font-style:normal;font-weight:normal;font-size:28.35959816px;line-height:125%;font-family:sans-serif;letter-spacing:0px;word-spacing:0px;fill:#ffffff;fill-opacity:1;stroke:none;stroke-width:1px;stroke-linecap:butt;stroke-linejoin:miter;stroke-opacity:1">
        <path
           id="path4429"
           style="font-style:normal;font-variant:normal;font-weight:300;font-stretch:normal;font-family:'Brandon Grotesque';-inkscape-font-specification:'Brandon Grotesque Light';fill:#ffffff"
           d="m 74.178027,1012.9262 c 0,5.7003 4.537536,10.1811 10.209455,10.1811 5.70028,0 10.237815,-4.4808 10.237815,-10.1811 0,-5.6719 -4.537535,-10.2378 -10.237815,-10.2378 -5.671919,0 -10.209455,4.5659 -10.209455,10.2378 z m 1.247822,0 c 0,-4.9629 3.998704,-8.99 8.961633,-8.99 4.96293,0 8.989993,4.0271 8.989993,8.99 0,4.963 -4.027063,8.9333 -8.989993,8.9333 -4.962929,0 -8.961633,-3.9703 -8.961633,-8.9333 z" />
        <path
           id="path4431"
           style="font-style:normal;font-variant:normal;font-weight:300;font-stretch:normal;font-family:'Brandon Grotesque';-inkscape-font-specification:'Brandon Grotesque Light';fill:#ffffff"
           d="m 99.020593,1015.592 c 0,4.3391 2.921037,7.5153 7.401857,7.5153 4.50917,0 7.45857,-3.1762 7.45857,-7.5153 l 0,-12.2513 c 0,-0.1985 -0.17016,-0.3687 -0.36867,-0.3687 l -0.56719,0 c -0.2836,0 -0.39704,0.1418 -0.39704,0.3687 l 0,12.1379 c 0,3.6584 -2.32549,6.3242 -6.12567,6.3242 -3.77183,0 -6.06896,-2.6942 -6.06896,-6.3526 l 0,-12.1095 c 0,-0.1985 -0.17015,-0.3687 -0.368671,-0.3687 l -0.595552,0 c -0.198517,0 -0.368674,0.1702 -0.368674,0.3687 l 0,12.2513 z" />
        <path
           id="path4433"
           style="font-style:normal;font-variant:normal;font-weight:300;font-stretch:normal;font-family:'Brandon Grotesque';-inkscape-font-specification:'Brandon Grotesque Light';fill:#ffffff"
           d="m 122.69244,1022.4551 c 0,0.1985 0.17015,0.3686 0.36867,0.3686 l 0.51047,0 c 0.2836,0 0.45376,-0.1701 0.45376,-0.3686 l 0,-18.2636 5.44504,0 c 0.22688,0 0.36868,-0.1702 0.36868,-0.3687 l 0,-0.4821 c 0,-0.1985 -0.1418,-0.3687 -0.36868,-0.3687 l -12.19463,0 c -0.19851,0 -0.36867,0.1418 -0.36867,0.3687 l 0,0.4254 c 0,0.2552 0.0851,0.4254 0.36867,0.4254 l 5.41669,0 0,18.2636 z" />
        <path
           id="path4435"
           style="font-style:normal;font-variant:normal;font-weight:300;font-stretch:normal;font-family:'Brandon Grotesque';-inkscape-font-specification:'Brandon Grotesque Light';fill:#ffffff"
           d="m 133.09066,1022.4551 c 0,0.1985 0.17016,0.3686 0.36868,0.3686 l 11.3722,0 c 0.19851,0 0.36867,-0.1701 0.36867,-0.3686 l 0,-0.4538 c 0,-0.1985 -0.17016,-0.3687 -0.36867,-0.3687 l -10.37962,0 0,-8.3944 8.99,0 c 0.19851,0 0.36867,-0.1702 0.36867,-0.3687 l 0,-0.4821 c 0,-0.1985 -0.17016,-0.3687 -0.36867,-0.3687 l -8.99,0 0,-7.8272 10.37962,0 c 0.19851,0 0.36867,-0.1702 0.36867,-0.3687 l 0,-0.4821 c 0,-0.1985 -0.17016,-0.3687 -0.36867,-0.3687 l -11.3722,0 c -0.19852,0 -0.36868,0.1702 -0.36868,0.3687 l 0,19.1144 z" />
        <path
           id="path4437"
           style="font-style:normal;font-variant:normal;font-weight:300;font-stretch:normal;font-family:'Brandon Grotesque';-inkscape-font-specification:'Brandon Grotesque Light';fill:#ffffff"
           d="m 150.03995,1022.4551 c 0,0.1985 0.17016,0.3686 0.36868,0.3686 l 0.51047,0 c 0.2836,0 0.45375,-0.1701 0.45375,-0.3686 l 0,-7.2885 5.21817,0 c 0.36868,0 0.68063,0 1.04931,-0.028 l 4.11214,7.4302 c 0.0851,0.1702 0.19851,0.2552 0.39703,0.2552 l 0.87915,0 c 0.2836,0 0.34031,-0.2836 0.19852,-0.5104 l -4.1405,-7.3452 c 2.69416,-0.7657 4.67933,-3.0628 4.67933,-5.9271 0,-3.4599 -2.86432,-6.069 -6.32419,-6.069 l -7.03318,0 c -0.22688,0 -0.36868,0.1702 -0.36868,0.3687 l 0,19.1144 z m 1.36126,-8.4796 0,-9.6989 5.95552,0 c 2.75088,0 5.04801,2.0702 5.04801,4.7644 0,2.8076 -2.29713,4.9345 -5.01965,4.9345 l -5.98388,0 z" />
        <path
           id="path4439"
           style="font-style:normal;font-variant:normal;font-weight:300;font-stretch:normal;font-family:'Brandon Grotesque';-inkscape-font-specification:'Brandon Grotesque Light';fill:#ffffff"
           d="m 168.48477,1022.4551 c 0,0.1985 0.17016,0.3686 0.36868,0.3686 l 0.53883,0 c 0.19851,0 0.36867,-0.1701 0.36867,-0.3686 l 0,-17.2427 c 0,0 0.0284,0 0.0284,0 13.47081,17.8098 13.69769,17.8949 13.72605,17.8949 l 0.36867,0 c 0.22688,0 0.45376,-0.1134 0.45376,-0.3686 l 0,-19.398 c 0,-0.1985 -0.17016,-0.3687 -0.36868,-0.3687 l -0.56719,0 c -0.19852,0 -0.36868,0.1702 -0.36868,0.3687 l 0,17.0725 c 0,0 0,0 -0.0284,0 l -13.6126,-17.7248 -0.48212,0 c -0.22687,0 -0.42539,0.1418 -0.42539,0.3687 l 0,19.398 z" />
        <path
           id="path4441"
           style="font-style:normal;font-variant:normal;font-weight:300;font-stretch:normal;font-family:'Brandon Grotesque';-inkscape-font-specification:'Brandon Grotesque Light';fill:#ffffff"
           d="m 190.36375,1022.4551 c 0,0.1985 0.17016,0.3686 0.36868,0.3686 l 11.3722,0 c 0.19851,0 0.36867,-0.1701 0.36867,-0.3686 l 0,-0.4538 c 0,-0.1985 -0.17016,-0.3687 -0.36867,-0.3687 l -10.37962,0 0,-8.3944 8.99,0 c 0.19851,0 0.36867,-0.1702 0.36867,-0.3687 l 0,-0.4821 c 0,-0.1985 -0.17016,-0.3687 -0.36867,-0.3687 l -8.99,0 0,-7.8272 10.37962,0 c 0.19851,0 0.36867,-0.1702 0.36867,-0.3687 l 0,-0.4821 c 0,-0.1985 -0.17016,-0.3687 -0.36867,-0.3687 l -11.3722,0 c -0.19852,0 -0.36868,0.1702 -0.36868,0.3687 l 0,19.1144 z" />
        <path
           id="path4443"
           style="font-style:normal;font-variant:normal;font-weight:300;font-stretch:normal;font-family:'Brandon Grotesque';-inkscape-font-specification:'Brandon Grotesque Light';fill:#ffffff"
           d="m 210.31917,1022.4551 c 0,0.1985 0.17015,0.3686 0.36867,0.3686 l 0.51047,0 c 0.2836,0 0.45376,-0.1701 0.45376,-0.3686 l 0,-18.2636 5.44504,0 c 0.22688,0 0.36867,-0.1702 0.36867,-0.3687 l 0,-0.4821 c 0,-0.1985 -0.14179,-0.3687 -0.36867,-0.3687 l -12.19463,0 c -0.19852,0 -0.36867,0.1418 -0.36867,0.3687 l 0,0.4254 c 0,0.2552 0.0851,0.4254 0.36867,0.4254 l 5.41669,0 0,18.2636 z" />
      </g>
      <g
         id="g4445">
        <circle
           r="27.101139"
           cy="1012.8979"
           cx="38.66544"
           id="path4136"
           style="fill:#00aeef;fill-opacity:1;fill-rule:evenodd;stroke:none;stroke-width:1px;stroke-linecap:butt;stroke-linejoin:miter;stroke-opacity:1" />
        <g
           style="font-style:normal;font-weight:normal;font-size:18.90028572px;line-height:125%;font-family:sans-serif;letter-spacing:0px;word-spacing:0px;fill:#ffffff;fill-opacity:1;stroke:none;stroke-width:1px;stroke-linecap:butt;stroke-linejoin:miter;stroke-opacity:1"
           id="text4370"
           transform="translate(3.4607204,0)">
          <path
             d="m 16.942932,1016.8202 c 0,0.1323 0.0756,0.2457 0.207903,0.2457 l 0.378006,0 c 0.170103,0 0.245704,-0.095 0.245704,-0.2457 l 0,-5.3866 c 0.0567,-0.1134 0.774912,-1.3041 2.249134,-1.3041 0.510308,0 0.888313,0.189 0.982815,0.2268 0.132302,0.057 0.245703,0.038 0.302404,-0.095 l 0.151203,-0.378 c 0.0567,-0.1512 -0.0378,-0.2835 -0.207904,-0.3402 -0.151202,-0.057 -0.567008,-0.2268 -1.171817,-0.2268 -1.417522,0 -2.173533,0.9072 -2.362536,1.1718 l -0.0756,-0.7749 c -0.0189,-0.1323 -0.113402,-0.2079 -0.226804,-0.2079 l -0.226803,0 c -0.132302,0 -0.245704,0.1134 -0.245704,0.2457 l 0,7.0687 z"
             style="font-style:normal;font-variant:normal;font-weight:300;font-stretch:normal;font-family:'Brandon Grotesque';-inkscape-font-specification:'Brandon Grotesque Light';text-align:center;text-anchor:middle;fill:#ffffff"
             id="path4420" />
          <path
             d="m 22.295848,1016.8013 c -0.113402,0.1323 -0.0378,0.2646 0.113401,0.2646 l 0.491408,0 c 0.0945,0 0.207903,-0.057 0.283504,-0.1701 l 2.362536,-3.1563 c 0,0 0.0189,0 0.0189,0 l 2.362536,3.1563 c 0.0756,0.1134 0.189003,0.1701 0.283504,0.1701 l 0.491408,0 c 0.151202,0 0.226803,-0.1323 0.113401,-0.2646 l -2.740541,-3.6288 2.608239,-3.4021 c 0.113402,-0.1323 0.0378,-0.2646 -0.113401,-0.2646 l -0.491408,0 c -0.0945,0 -0.207903,0.057 -0.283504,0.1701 l -2.230234,2.9296 c 0,0 -0.0189,0 -0.0189,0 l -2.211334,-2.9296 c -0.0756,-0.1134 -0.189002,-0.1701 -0.283504,-0.1701 l -0.491407,0 c -0.151203,0 -0.226804,0.1323 -0.113402,0.2646 l 2.62714,3.421 -2.778342,3.6099 z"
             style="font-style:normal;font-variant:normal;font-weight:300;font-stretch:normal;font-family:'Brandon Grotesque';-inkscape-font-specification:'Brandon Grotesque Light';text-align:center;text-anchor:middle;fill:#ffffff"
             id="path4422" />
          <path
             d="m 30.286595,1010.4697 c 0,3.799 3.024046,6.7852 6.804103,6.7852 3.798957,0 6.823003,-2.9862 6.823003,-6.7852 0,-3.78 -3.024046,-6.823 -6.823003,-6.823 -3.780057,0 -6.804103,3.043 -6.804103,6.823 z m 0.831612,0 c 0,-3.3075 2.664941,-5.9914 5.972491,-5.9914 3.30755,0 5.99139,2.6839 5.99139,5.9914 0,3.3076 -2.68384,5.9536 -5.99139,5.9536 -3.30755,0 -5.972491,-2.646 -5.972491,-5.9536 z"
             style="font-style:normal;font-variant:normal;font-weight:300;font-stretch:normal;font-family:'Brandon Grotesque';-inkscape-font-specification:'Brandon Grotesque Light';text-align:center;text-anchor:middle;fill:#ffffff"
             id="path4424" />
          <path
             d="m 45.339379,1015.7051 c 0.245704,0.2268 1.757727,1.5498 4.006861,1.5498 2.173532,0 4.120262,-1.4742 4.120262,-3.3642 0,-2.1925 -1.644325,-3.0997 -4.233664,-3.988 -1.908929,-0.6237 -3.137448,-1.323 -3.137448,-2.9295 0,-1.0774 0.869414,-2.5138 3.194149,-2.5138 1.455322,0 2.721641,0.8505 2.778342,0.8883 0.189003,0.1134 0.302404,0.057 0.415806,-0.095 0.0378,-0.076 0.0945,-0.1701 0.151202,-0.2457 0.132302,-0.2079 0,-0.3402 -0.0756,-0.3969 0,0 -1.379721,-0.9639 -3.250849,-0.9639 -2.948445,0 -4.082462,1.9278 -4.082462,3.3454 0,2.1735 1.455322,2.9484 3.647755,3.7233 2.286935,0.7749 3.666656,1.5309 3.666656,3.2131 0,1.3797 -1.455322,2.5326 -3.175248,2.5326 -1.908929,0 -3.30755,-1.2852 -3.496553,-1.4553 -0.151202,-0.1323 -0.283504,-0.076 -0.415806,0.076 l -0.170103,0.2268 c -0.151202,0.2079 -0.0567,0.3024 0.0567,0.3969 z"
             style="font-style:normal;font-variant:normal;font-weight:300;font-stretch:normal;font-family:'Brandon Grotesque';-inkscape-font-specification:'Brandon Grotesque Light';text-align:center;text-anchor:middle;fill:#ffffff"
             id="path4426" />
        </g>
        <path
           style="fill:url(#linearGradient4417);fill-opacity:1;fill-rule:evenodd;stroke:none;stroke-width:1px;stroke-linecap:butt;stroke-linejoin:miter;stroke-opacity:1"
           d="m 18.120499,1030.5226 c 5.139105,6.003 12.642353,9.4639 20.544649,9.4764 11.341377,-0.015 21.473905,-7.0906 25.394387,-17.7328 -18.145335,0 -44.543232,-2.1787 -45.939036,8.2564 z"
           id="path4406" />
      </g>
    </g>
  </g>
</svg>
